<?xml version="1.0" encoding="utf-8"?>
<!-- Generated by IcoMoon.io -->
<!DOCTYPE svg PUBLIC "-//W3C//DTD SVG 1.1//EN" "http://www.w3.org/Graphics/SVG/1.1/DTD/svg11.dtd">
<svg version="1.1" xmlns="http://www.w3.org/2000/svg" xmlns:xlink="http://www.w3.org/1999/xlink" width="16" height="16" viewBox="0 0 16 16">
<path fill="#444444" d="M1 0l5 6 4.9-6z"></path>
<path fill="#444444" d="M5.9 9l-4.9 6h10l-5.1-6zM3.1 14l2.8-3.4 3 3.4h-5.8z"></path>
<path fill="#444444" d="M10 7h1v1h-1v-1z"></path>
<path fill="#444444" d="M12 7h1v1h-1v-1z"></path>
<path fill="#444444" d="M8 7h1v1h-1v-1z"></path>
<path fill="#444444" d="M6 7h1v1h-1v-1z"></path>
<path fill="#444444" d="M4 7h1v1h-1v-1z"></path>
<path fill="#444444" d="M2 7h1v1h-1v-1z"></path>
<path fill="#444444" d="M0 7h1v1h-1v-1z"></path>
<path fill="#444444" d="M15 7.5v0c0 1.3-0.7 2.6-1.9 3.6l-1.1-1.1v3h3l-1.2-1.2c1.4-1.2 2.2-2.7 2.2-4.3 0 0 0 0 0 0 0-1.9-1-3.6-2.9-4.9l-0.6 0.8c1.6 1.1 2.5 2.5 2.5 4.1z"></path>
</svg>
