<?xml version="1.0"?>
<svg xmlns="http://www.w3.org/2000/svg" viewBox="0 0 50 50">
    <path style="text-indent:0;text-align:start;line-height:normal;text-transform:none;block-progression:tb;-inkscape-font-specification:Sans" d="M 6 3 C 4.3550302 3 3 4.3550302 3 6 L 3 29 C 3 30.64497 4.3550302 32 6 32 L 16 32 L 16 30 L 6 30 C 5.4349698 30 5 29.56503 5 29 L 5 6 C 5 5.4349698 5.4349698 5 6 5 L 29 5 C 29.56503 5 30 5.4349698 30 6 L 30 16 L 32 16 L 32 6 C 32 4.3550302 30.64497 3 29 3 L 6 3 z M 21 18 C 19.35503 18 18 19.35503 18 21 L 18 44 C 18 45.64497 19.35503 47 21 47 L 44 47 C 45.64497 47 47 45.64497 47 44 L 47 21 C 47 19.35503 45.64497 18 44 18 L 21 18 z M 21 20 L 44 20 C 44.56503 20 45 20.43497 45 21 L 45 44 C 45 44.56503 44.56503 45 44 45 L 21 45 C 20.43497 45 20 44.56503 20 44 L 20 21 C 20 20.43497 20.43497 20 21 20 z M 22 21 C 21.447715 21 21 21.447715 21 22 C 21 22.552285 21.447715 23 22 23 C 22.552285 23 23 22.552285 23 22 C 23 21.447715 22.552285 21 22 21 z M 28 21 C 27.447715 21 27 21.447715 27 22 C 27 22.552285 27.447715 23 28 23 C 28.552285 23 29 22.552285 29 22 C 29 21.447715 28.552285 21 28 21 z M 34 21 C 33.447715 21 33 21.447715 33 22 C 33 22.552285 33.447715 23 34 23 C 34.552285 23 35 22.552285 35 22 C 35 21.447715 34.552285 21 34 21 z M 40 21 C 39.447715 21 39 21.447715 39 22 C 39 22.552285 39.447715 23 40 23 C 40.552285 23 41 22.552285 41 22 C 41 21.447715 40.552285 21 40 21 z M 25 24 C 24.447715 24 24 24.447715 24 25 C 24 25.552285 24.447715 26 25 26 C 25.552285 26 26 25.552285 26 25 C 26 24.447715 25.552285 24 25 24 z M 31 24 C 30.447715 24 30 24.447715 30 25 C 30 25.552285 30.447715 26 31 26 C 31.552285 26 32 25.552285 32 25 C 32 24.447715 31.552285 24 31 24 z M 37 24 C 36.447715 24 36 24.447715 36 25 C 36 25.552285 36.447715 26 37 26 C 37.552285 26 38 25.552285 38 25 C 38 24.447715 37.552285 24 37 24 z M 43 24 C 42.447715 24 42 24.447715 42 25 C 42 25.552285 42.447715 26 43 26 C 43.552285 26 44 25.552285 44 25 C 44 24.447715 43.552285 24 43 24 z M 22 27 C 21.447715 27 21 27.447715 21 28 C 21 28.552285 21.447715 29 22 29 C 22.552285 29 23 28.552285 23 28 C 23 27.447715 22.552285 27 22 27 z M 28 27 C 27.447715 27 27 27.447715 27 28 C 27 28.552285 27.447715 29 28 29 C 28.552285 29 29 28.552285 29 28 C 29 27.447715 28.552285 27 28 27 z M 34 27 C 33.447715 27 33 27.447715 33 28 C 33 28.552285 33.447715 29 34 29 C 34.552285 29 35 28.552285 35 28 C 35 27.447715 34.552285 27 34 27 z M 40 27 C 39.447715 27 39 27.447715 39 28 C 39 28.552285 39.447715 29 40 29 C 40.552285 29 41 28.552285 41 28 C 41 27.447715 40.552285 27 40 27 z M 25 30 C 24.447715 30 24 30.447715 24 31 C 24 31.552285 24.447715 32 25 32 C 25.552285 32 26 31.552285 26 31 C 26 30.447715 25.552285 30 25 30 z M 31 30 C 30.447715 30 30 30.447715 30 31 C 30 31.552285 30.447715 32 31 32 C 31.552285 32 32 31.552285 32 31 C 32 30.447715 31.552285 30 31 30 z M 37 30 C 36.447715 30 36 30.447715 36 31 C 36 31.552285 36.447715 32 37 32 C 37.552285 32 38 31.552285 38 31 C 38 30.447715 37.552285 30 37 30 z M 43 30 C 42.447715 30 42 30.447715 42 31 C 42 31.552285 42.447715 32 43 32 C 43.552285 32 44 31.552285 44 31 C 44 30.447715 43.552285 30 43 30 z M 22 33 C 21.447715 33 21 33.447715 21 34 C 21 34.552285 21.447715 35 22 35 C 22.552285 35 23 34.552285 23 34 C 23 33.447715 22.552285 33 22 33 z M 28 33 C 27.447715 33 27 33.447715 27 34 C 27 34.552285 27.447715 35 28 35 C 28.552285 35 29 34.552285 29 34 C 29 33.447715 28.552285 33 28 33 z M 34 33 C 33.447715 33 33 33.447715 33 34 C 33 34.552285 33.447715 35 34 35 C 34.552285 35 35 34.552285 35 34 C 35 33.447715 34.552285 33 34 33 z M 40 33 C 39.447715 33 39 33.447715 39 34 C 39 34.552285 39.447715 35 40 35 C 40.552285 35 41 34.552285 41 34 C 41 33.447715 40.552285 33 40 33 z M 25 36 C 24.447715 36 24 36.447715 24 37 C 24 37.552285 24.447715 38 25 38 C 25.552285 38 26 37.552285 26 37 C 26 36.447715 25.552285 36 25 36 z M 31 36 C 30.447715 36 30 36.447715 30 37 C 30 37.552285 30.447715 38 31 38 C 31.552285 38 32 37.552285 32 37 C 32 36.447715 31.552285 36 31 36 z M 37 36 C 36.447715 36 36 36.447715 36 37 C 36 37.552285 36.447715 38 37 38 C 37.552285 38 38 37.552285 38 37 C 38 36.447715 37.552285 36 37 36 z M 43 36 C 42.447715 36 42 36.447715 42 37 C 42 37.552285 42.447715 38 43 38 C 43.552285 38 44 37.552285 44 37 C 44 36.447715 43.552285 36 43 36 z M 22 39 C 21.447715 39 21 39.447715 21 40 C 21 40.552285 21.447715 41 22 41 C 22.552285 41 23 40.552285 23 40 C 23 39.447715 22.552285 39 22 39 z M 28 39 C 27.447715 39 27 39.447715 27 40 C 27 40.552285 27.447715 41 28 41 C 28.552285 41 29 40.552285 29 40 C 29 39.447715 28.552285 39 28 39 z M 34 39 C 33.447715 39 33 39.447715 33 40 C 33 40.552285 33.447715 41 34 41 C 34.552285 41 35 40.552285 35 40 C 35 39.447715 34.552285 39 34 39 z M 40 39 C 39.447715 39 39 39.447715 39 40 C 39 40.552285 39.447715 41 40 41 C 40.552285 41 41 40.552285 41 40 C 41 39.447715 40.552285 39 40 39 z M 25 42 C 24.447715 42 24 42.447715 24 43 C 24 43.552285 24.447715 44 25 44 C 25.552285 44 26 43.552285 26 43 C 26 42.447715 25.552285 42 25 42 z M 31 42 C 30.447715 42 30 42.447715 30 43 C 30 43.552285 30.447715 44 31 44 C 31.552285 44 32 43.552285 32 43 C 32 42.447715 31.552285 42 31 42 z M 37 42 C 36.447715 42 36 42.447715 36 43 C 36 43.552285 36.447715 44 37 44 C 37.552285 44 38 43.552285 38 43 C 38 42.447715 37.552285 42 37 42 z M 43 42 C 42.447715 42 42 42.447715 42 43 C 42 43.552285 42.447715 44 43 44 C 43.552285 44 44 43.552285 44 43 C 44 42.447715 43.552285 42 43 42 z"/>
</svg>
